<svg width="16" height="16" viewBox="0 0 16 16" fill="none" xmlns="http://www.w3.org/2000/svg">
<path d="M13.3333 8L13.6868 7.64645L14.0404 8L13.6868 8.35355L13.3333 8ZM3.33325 8.5C3.05711 8.5 2.83325 8.27614 2.83325 8C2.83325 7.72386 3.05711 7.5 3.33325 7.5V8V8.5ZM9.33325 4L9.68681 3.64645L13.6868 7.64645L13.3333 8L12.9797 8.35355L8.9797 4.35355L9.33325 4ZM13.3333 8L13.6868 8.35355L9.68681 12.3536L9.33325 12L8.9797 11.6464L12.9797 7.64645L13.3333 8ZM13.3333 8V8.5H3.33325V8V7.5H13.3333V8Z" fill="#717D96"/>
</svg>
