<svg width="40" height="40" viewBox="0 0 40 40" fill="none" xmlns="http://www.w3.org/2000/svg">
<rect width="40" height="40" rx="20" fill="white"/>
<path fill-rule="evenodd" clip-rule="evenodd" d="M20 17C22.2091 17 24 18.7909 24 21C24 23.2092 22.2091 25 20 25C17.7909 25 16 23.2092 16 21C16 18.7909 17.7909 17 20 17ZM20 19C18.8954 19 18 19.8955 18 21C18 22.1046 18.8954 23 20 23C21.1046 23 22 22.1046 22 21C22 19.8955 21.1046 19 20 19Z" fill="#20242B"/>
<path fill-rule="evenodd" clip-rule="evenodd" d="M22.5098 11C22.7312 11 22.9219 10.9985 23.1055 11.0196C23.993 11.1213 24.7894 11.613 25.2773 12.3614C25.3783 12.5162 25.4624 12.6876 25.5615 12.8858L26.3818 14.5283C26.5265 14.8174 26.8223 14.9999 27.1455 15C28.7218 15 30 16.2782 30 17.8545V22.8574C30 23.8399 30.0007 24.6487 29.9375 25.3008C29.8728 25.9682 29.7334 26.5762 29.3867 27.128C29.067 27.6368 28.6367 28.067 28.1279 28.3867C27.5762 28.7334 26.9682 28.8728 26.3008 28.9375C25.6487 29.0008 24.8399 29 23.8574 29H16.1426C15.1601 29 14.3513 29.0008 13.6992 28.9375C13.0318 28.8728 12.4238 28.7334 11.8721 28.3867C11.3633 28.067 10.933 27.6368 10.6133 27.128C10.2666 26.5762 10.1272 25.9682 10.0625 25.3008C9.99926 24.6487 10 23.8399 10 22.8574V17.8545C10 16.2783 11.2782 15 12.8545 15C13.1777 14.9999 13.4735 14.8174 13.6182 14.5283L14.4385 12.8858C14.5376 12.6876 14.6217 12.5162 14.7227 12.3614C15.2106 11.613 16.007 11.1213 16.8945 11.0196C17.0781 10.9985 17.2688 11 17.4902 11H22.5098ZM17.1221 13.0069C16.8263 13.0408 16.561 13.2047 16.3984 13.4541C16.3747 13.4905 16.3482 13.539 16.2275 13.7803L15.4072 15.4219C14.9238 16.3887 13.9354 16.9999 12.8545 17C12.3828 17 12 17.3828 12 17.8545V22.8574C12 23.8794 12.001 24.5743 12.0527 25.1074C12.103 25.6252 12.1936 25.8845 12.3066 26.0645C12.4664 26.3186 12.6814 26.5336 12.9355 26.6934C13.1155 26.8064 13.3748 26.8971 13.8926 26.9473C14.4257 26.999 15.1206 27 16.1426 27H23.8574C24.8794 27 25.5743 26.999 26.1074 26.9473C26.6252 26.8971 26.8845 26.8064 27.0645 26.6934C27.3186 26.5336 27.5336 26.3186 27.6934 26.0645C27.8064 25.8845 27.897 25.6252 27.9473 25.1074C27.999 24.5743 28 23.8794 28 22.8574V17.8545C28 17.3828 27.6172 17 27.1455 17C26.0646 16.9999 25.0762 16.3887 24.5928 15.4219L23.7725 13.7803C23.6518 13.539 23.6253 13.4905 23.6016 13.4541C23.439 13.2047 23.1737 13.0408 22.8779 13.0069C22.8348 13.0019 22.7795 13 22.5098 13H17.4902C17.2205 13 17.1652 13.0019 17.1221 13.0069Z" fill="#20242B"/>
</svg>
