<svg preserveAspectRatio="none" width="100%" height="100%" overflow="visible" style="display: block;" viewBox="0 0 16 16" fill="none" xmlns="http://www.w3.org/2000/svg">
<g id="Frame 471">
<path id="Subtract" d="M8 1L8 0.5L8 1ZM14 7.1709L14.5 7.17092V7.1709H14ZM8.40918 14.8955L8.64749 15.3351L8.64749 15.3351L8.40918 14.8955ZM7.59082 14.8955L7.35251 15.3351L7.35251 15.3351L7.59082 14.8955ZM2 7.1709L1.5 7.1709L1.5 7.17092L2 7.1709ZM8 4.52637L8.00002 4.02637H8V4.52637ZM5.42871 7.1709L4.92871 7.1709L4.92871 7.17096L5.42871 7.1709ZM8 9.81543L8 10.3154L8.00002 10.3154L8 9.81543ZM10.5713 7.1709L11.0713 7.17096V7.1709H10.5713ZM8 1V1.5C11.0244 1.5 13.5 4.02579 13.5 7.1709H14H14.5C14.5 3.50018 11.603 0.5 8 0.5V1ZM14 7.1709L13.5 7.17087C13.4999 9.17103 12.526 10.802 11.3485 12.0443C10.1705 13.2871 8.82345 14.1021 8.17087 14.456L8.40918 14.8955L8.64749 15.3351C9.34661 14.956 10.7949 14.082 12.0743 12.7322C13.3542 11.382 14.4999 9.51712 14.5 7.17092L14 7.1709ZM8.40918 14.8955L8.17087 14.456C8.06263 14.5146 7.93737 14.5146 7.82913 14.456L7.59082 14.8955L7.35251 15.3351C7.75806 15.5549 8.24194 15.5549 8.64749 15.3351L8.40918 14.8955ZM7.59082 14.8955L7.82913 14.456C7.17655 14.1021 5.82952 13.2871 4.65148 12.0443C3.47396 10.802 2.5001 9.17103 2.5 7.17087L2 7.1709L1.5 7.17092C1.50011 9.51712 2.64581 11.382 3.92572 12.7322C5.20511 14.082 6.65339 14.956 7.35251 15.3351L7.59082 14.8955ZM2 7.1709H2.5C2.5 4.02579 4.97559 1.5 8 1.5L8 1L8 0.5C4.397 0.5 1.5 3.50018 1.5 7.1709H2ZM8 4.52637V4.02637C6.29054 4.02637 4.92871 5.44756 4.92871 7.1709H5.42871H5.92871C5.92871 5.97317 6.86914 5.02637 8 5.02637V4.52637ZM5.42871 7.1709L4.92871 7.17096C4.92891 8.89404 6.29059 10.3154 8 10.3154V9.81543V9.31543C6.8693 9.31543 5.92885 8.36853 5.92871 7.17084L5.42871 7.1709ZM8 9.81543L8.00002 10.3154C9.70935 10.3154 11.0711 8.89402 11.0713 7.17096L10.5713 7.1709L10.0713 7.17084C10.0711 8.36847 9.13067 9.31538 7.99998 9.31543L8 9.81543ZM10.5713 7.1709H11.0713C11.0713 5.44758 9.70939 4.02644 8.00002 4.02637L8 4.52637L7.99998 5.02637C9.13083 5.02641 10.0713 5.97322 10.0713 7.1709H10.5713Z" fill="var(--stroke-0, #717D96)"/>
</g>
</svg>
