<svg width="40" height="40" viewBox="0 0 40 40" fill="none" xmlns="http://www.w3.org/2000/svg">
<rect width="40" height="40" rx="20" fill="white"/>
<path fill-rule="evenodd" clip-rule="evenodd" d="M23.8029 11.7664C24.5468 11.8067 25.1052 12.1392 25.4767 12.4226C25.8268 12.6897 26.1864 13.0551 26.4797 13.3484L26.6515 13.5203C26.9448 13.8135 27.3102 14.1731 27.5773 14.5232C27.8797 14.9195 28.2375 15.5283 28.2375 16.3484C28.2375 17.1685 27.8797 17.7772 27.5773 18.1736C27.3102 18.5237 26.9448 18.8832 26.6515 19.1765L19.4572 26.3708C19.3374 26.4907 19.0271 26.825 18.6183 27.0564C18.2093 27.2878 17.7628 27.3816 17.5988 27.4226L15.0344 28.0642L15.0324 28.0652L14.9455 28.0867C14.8299 28.1156 14.5219 28.1974 14.2365 28.2253C13.9255 28.2557 13.0917 28.2826 12.4045 27.5955C11.7172 26.908 11.7442 26.074 11.7746 25.7634C11.8026 25.4778 11.8844 25.1698 11.9133 25.0544L12.5773 22.4011L12.6887 21.9832C12.7463 21.8001 12.8278 21.5861 12.9435 21.3816L13.0353 21.2332C13.2558 20.8984 13.5242 20.6475 13.6291 20.5427L20.8234 13.3484C21.1167 13.0551 21.4763 12.6897 21.8263 12.4226C22.2226 12.1203 22.8317 11.7626 23.6515 11.7625L23.8029 11.7664ZM15.0431 21.9568L14.8156 22.1902C14.7587 22.2535 14.7182 22.3079 14.6847 22.3669C14.6179 22.4852 14.5835 22.6187 14.5168 22.8855L13.8537 25.5398L13.7961 25.7781C13.75 25.9858 13.7437 26.1063 13.8185 26.1814C13.8936 26.2565 14.0141 26.2499 14.2219 26.2039L14.4601 26.1462L17.1144 25.4832C17.3811 25.4165 17.5148 25.382 17.633 25.3152C17.692 25.2818 17.7465 25.2412 17.8097 25.1843L18.0431 24.9568L24.6515 18.3484L21.6515 15.3484L15.0431 21.9568Z" fill="#20242B"/>
</svg>
