<svg preserveAspectRatio="none" width="100%" height="100%" overflow="visible" style="display: block;" viewBox="0 0 32 32" fill="none" xmlns="http://www.w3.org/2000/svg">
<g id="Pin_alt">
<path id="Subtract" d="M16 2.66699L16 1.66699H16V2.66699ZM25.333 12L26.333 12V12L25.333 12ZM16.4023 23.8047L16.8548 24.6965L16.855 24.6964L16.4023 23.8047ZM15.5977 23.8047L15.145 24.6964L15.1452 24.6965L15.5977 23.8047ZM6.66699 12L5.66699 12V12H6.66699ZM16 2.66699L16 3.66699C20.6024 3.66699 24.333 7.39763 24.333 12L25.333 12L26.333 12C26.333 6.29306 21.7069 1.66699 16 1.66699L16 2.66699ZM25.333 12H24.333C24.333 15.0502 22.7435 17.5335 20.8361 19.4156C18.9309 21.2956 16.8 22.4813 15.9496 22.913L16.4023 23.8047L16.855 24.6964C17.7936 24.2199 20.128 22.9241 22.2409 20.8392C24.3516 18.7565 26.333 15.7916 26.333 12H25.333ZM16.4023 23.8047L15.9499 22.9129C15.9804 22.8974 16.0196 22.8974 16.0501 22.9129L15.5977 23.8047L15.1452 24.6965C15.6835 24.9695 16.3165 24.9695 16.8548 24.6965L16.4023 23.8047ZM15.5977 23.8047L16.0504 22.913C15.2 22.4813 13.0691 21.2956 11.1639 19.4156C9.25648 17.5335 7.66699 15.0502 7.66699 12H6.66699H5.66699C5.66699 15.7916 7.64838 18.7565 9.75911 20.8392C11.872 22.9241 14.2064 24.2199 15.145 24.6964L15.5977 23.8047ZM6.66699 12L7.66699 12C7.66699 7.39763 11.3976 3.66699 16 3.66699V2.66699V1.66699C10.2931 1.66699 5.66699 6.29306 5.66699 12L6.66699 12ZM16 8V7C13.2386 7 11 9.23858 11 12H12H13C13 10.3431 14.3431 9 16 9V8ZM12 12H11C11 14.7614 13.2386 17 16 17V16V15C14.3431 15 13 13.6569 13 12H12ZM16 16V17C18.7614 17 21 14.7614 21 12H20H19C19 13.6569 17.6569 15 16 15V16ZM20 12H21C21 9.23858 18.7614 7 16 7V8V9C17.6569 9 19 10.3431 19 12H20Z" fill="var(--stroke-0, #33363F)"/>
<path id="Ellipse 40" d="M26.3923 23.3333C27.4455 23.9414 28 24.6312 28 25.3333C28 26.0355 27.4455 26.7253 26.3923 27.3333C25.3391 27.9414 23.8242 28.4464 22 28.7974C20.1758 29.1485 18.1064 29.3333 16 29.3333C13.8936 29.3333 11.8242 29.1485 10 28.7974C8.17577 28.4464 6.66092 27.9414 5.6077 27.3333C4.55448 26.7253 4 26.0355 4 25.3333C4 24.6312 4.55447 23.9414 5.60769 23.3333" stroke="var(--stroke-0, #33363F)" stroke-width="2" stroke-linecap="round"/>
</g>
</svg>
