<svg width="24" height="24" viewBox="0 0 24 24" fill="none" xmlns="http://www.w3.org/2000/svg">
<path d="M12.6318 2V1V2ZM13.4629 2.07031L13.8309 1.14051L13.8306 1.14035L13.4629 2.07031ZM13.9834 2.54199L14.8723 2.08384L14.8722 2.08374L13.9834 2.54199ZM14.1357 3.36133L15.1308 3.26196L14.1357 3.36133ZM14.4307 4.81836L13.6355 5.42472L13.6357 5.42497L14.4307 4.81836ZM15.3594 5.20312L15.4927 6.1942L15.493 6.19415L15.3594 5.20312ZM16.5977 4.38086L15.9645 3.60684L16.5977 4.38086ZM17.2861 3.90918L16.9822 2.95649L16.9821 2.95651L17.2861 3.90918ZM17.9873 3.94434L18.3848 3.02674L18.3847 3.02669L17.9873 3.94434ZM18.625 4.48242L17.9179 5.18953L18.625 4.48242ZM19.5176 5.375L20.2247 4.66789L19.5176 5.375ZM20.0557 6.0127L20.9734 5.61548L20.9732 5.61514L20.0557 6.0127ZM20.0908 6.71387L21.0433 7.01836L21.0435 7.01793L20.0908 6.71387ZM19.6182 7.40137L20.392 8.03478L19.6182 7.40137ZM18.7969 8.63965L17.8059 8.5053L17.8058 8.50611L18.7969 8.63965ZM19.1816 9.56836L18.5751 10.3634L18.5752 10.3635L19.1816 9.56836ZM20.6387 9.86328L20.7382 8.86825L20.6387 9.86328ZM21.459 10.0166L21.918 9.12818L21.9176 9.12797L21.459 10.0166ZM21.9297 10.5371L22.8596 10.1693L22.8596 10.1692L21.9297 10.5371ZM22 11.3682H23H22ZM22 12.6318H23H22ZM21.9297 13.4629L22.8595 13.8309L22.8597 13.8304L21.9297 13.4629ZM21.458 13.9834L21.9161 14.8723L21.9162 14.8723L21.458 13.9834ZM20.6387 14.1357L20.738 15.1308L20.6387 14.1357ZM19.1826 14.4307L18.5764 13.6354L18.5764 13.6354L19.1826 14.4307ZM18.7979 15.3594L17.8068 15.493L17.8068 15.493L18.7979 15.3594ZM19.6191 16.5977L20.3931 15.9644L19.6191 16.5977ZM20.0908 17.2842L21.0433 16.9797L21.0432 16.9791L20.0908 17.2842ZM20.0557 17.9863L20.9732 18.384L20.9733 18.3837L20.0557 17.9863ZM17.9873 20.0547L18.3847 20.9723L18.3848 20.9723L17.9873 20.0547ZM17.2861 20.0898L16.9821 21.0425L16.9822 21.0425L17.2861 20.0898ZM16.5977 19.6182L17.2308 18.8441L16.5977 19.6182ZM15.3584 18.7959L15.4913 17.8048L15.4909 17.8047L15.3584 18.7959ZM14.4307 19.1807L13.6357 18.574L13.6357 18.5741L14.4307 19.1807ZM14.1357 20.6377L13.1407 20.5384L14.1357 20.6377ZM13.9834 21.458L14.8721 21.9164L14.8723 21.9161L13.9834 21.458ZM13.4629 21.9297L13.8308 22.8596L13.831 22.8595L13.4629 21.9297ZM11.3682 22V23V22ZM10.5371 21.9297L10.1692 22.8596L10.1693 22.8596L10.5371 21.9297ZM10.0166 21.459L9.12797 21.9176L9.12818 21.918L10.0166 21.459ZM9.86328 20.6387L8.86825 20.7382L9.86328 20.6387ZM9.56836 19.1816L10.3635 18.5752L10.3634 18.5751L9.56836 19.1816ZM8.63965 18.7969L8.50611 17.8058L8.5053 17.8059L8.63965 18.7969ZM7.40137 19.6182L8.03478 20.392L7.40137 19.6182ZM6.71387 20.0908L7.01793 21.0435L7.01836 21.0433L6.71387 20.0908ZM6.0127 20.0557L5.61514 20.9732L5.61548 20.9734L6.0127 20.0557ZM4.48242 18.625L3.77532 19.3321L4.48242 18.625ZM3.94434 17.9873L3.02669 18.3847L3.02674 18.3848L3.94434 17.9873ZM3.90918 17.2861L2.95651 16.9821L2.95649 16.9822L3.90918 17.2861ZM4.38086 16.5977L3.60684 15.9645L4.38086 16.5977ZM5.20312 15.3594L6.19415 15.493L6.1942 15.4927L5.20312 15.3594ZM4.81836 14.4307L5.42497 13.6357L5.42472 13.6355L4.81836 14.4307ZM3.36133 14.1357L3.26196 15.1308L3.36133 14.1357ZM2.54199 13.9834L2.08374 14.8722L2.08384 14.8723L2.54199 13.9834ZM2.07031 13.4629L1.14035 13.8306L1.14051 13.8309L2.07031 13.4629ZM2 12.6318H1H2ZM2 11.3682H1H2ZM2.07031 10.5371L1.14043 10.1692L1.1404 10.1693L2.07031 10.5371ZM2.54102 10.0166L2.08244 9.12794L2.08197 9.12819L2.54102 10.0166ZM3.36133 9.86328L3.26173 8.86825L3.36133 9.86328ZM4.81836 9.56836L5.42502 10.3633L5.42518 10.3632L4.81836 9.56836ZM5.20312 8.64062L6.19425 8.50767L6.1942 8.50734L5.20312 8.64062ZM4.38086 7.40137L3.60693 8.03464L4.38086 7.40137ZM3.90918 6.71387L2.9565 7.01786L2.9566 7.01816L3.90918 6.71387ZM3.94434 6.0127L3.02674 5.61518L3.02667 5.61534L3.94434 6.0127ZM6.0127 3.94434L5.61521 3.02673L5.61519 3.02673L6.0127 3.94434ZM6.71387 3.90918L7.01795 2.95653L7.01778 2.95648L6.71387 3.90918ZM7.40234 4.38086L6.76921 5.1549L7.40234 4.38086ZM8.64062 5.20215L8.50748 6.19324L8.50761 6.19326L8.64062 5.20215ZM9.56836 4.81738L10.3633 5.42403L10.3635 5.42385L9.56836 4.81738ZM9.86328 3.36133L10.8583 3.46095L9.86328 3.36133ZM10.0166 2.54102L9.12819 2.08196L9.12792 2.08249L10.0166 2.54102ZM10.5371 2.07031L10.1694 1.14037L10.1693 1.14043L10.5371 2.07031ZM12.6318 2V3C12.8626 3 12.9873 3.00059 13.0772 3.00664C13.1573 3.01203 13.1415 3.01857 13.0952 3.00027L13.4629 2.07031L13.8306 1.14035C13.6071 1.05202 13.3936 1.02341 13.2115 1.01115C13.0391 0.999553 12.8368 1 12.6318 1V2ZM13.4629 2.07031L13.0948 3.00012L13.0946 3.00024L13.9834 2.54199L14.8722 2.08374C14.6509 1.65446 14.2815 1.31885 13.8309 1.14051L13.4629 2.07031ZM13.9834 2.54199L13.0945 3.00015C13.0717 2.95592 13.0766 2.93941 13.0899 3.01838C13.1048 3.10719 13.1178 3.23097 13.1407 3.46069L14.1357 3.36133L15.1308 3.26196C15.1105 3.05825 15.0908 2.857 15.0622 2.68682C15.032 2.5068 14.9823 2.29735 14.8723 2.08384L13.9834 2.54199ZM14.1357 3.36133L13.1407 3.46069C13.18 3.85445 13.2147 4.20889 13.2654 4.4903C13.3142 4.76198 13.4005 5.11661 13.6355 5.42472L14.4307 4.81836L15.2259 4.21199C15.2891 4.29491 15.2689 4.33143 15.2337 4.13609C15.2003 3.95049 15.1734 3.68901 15.1308 3.26196L14.1357 3.36133ZM14.4307 4.81836L13.6357 5.42497C14.0713 5.99593 14.7804 6.29 15.4927 6.1942L15.3594 5.20312L15.2261 4.21205L15.2257 4.21175L14.4307 4.81836ZM15.3594 5.20312L15.493 6.19415C15.8777 6.14228 16.1896 5.95177 16.4157 5.79436C16.6499 5.63129 16.925 5.40508 17.2308 5.15488L16.5977 4.38086L15.9645 3.60684C15.6318 3.87901 15.428 4.04501 15.2729 4.15301C15.1096 4.26669 15.1217 4.22613 15.2257 4.2121L15.3594 5.20312ZM16.5977 4.38086L17.2308 5.15488C17.4093 5.00891 17.5062 4.93048 17.5795 4.87846C17.6447 4.83215 17.6369 4.84693 17.5901 4.86185L17.2861 3.90918L16.9821 2.95651C16.5744 3.08663 16.2337 3.38666 15.9645 3.60684L16.5977 4.38086ZM17.2861 3.90918L17.5901 4.86187L17.5899 4.86199L17.9873 3.94434L18.3847 3.02669C17.9413 2.83468 17.4432 2.80942 16.9822 2.95649L17.2861 3.90918ZM17.9873 3.94434L17.5898 4.86193C17.5443 4.84222 17.5378 4.82647 17.5982 4.87926C17.6661 4.93854 17.7546 5.02628 17.9179 5.18953L18.625 4.48242L19.3321 3.77532C19.1871 3.63026 19.0442 3.48684 18.9141 3.3731C18.7764 3.25286 18.6052 3.12222 18.3848 3.02674L17.9873 3.94434ZM18.625 4.48242L17.9179 5.18953L18.8105 6.08211L19.5176 5.375L20.2247 4.66789L19.3321 3.77532L18.625 4.48242ZM19.5176 5.375L18.8105 6.08211C18.9736 6.24528 19.0614 6.33391 19.1207 6.40179C19.1736 6.46229 19.1578 6.45581 19.1381 6.41025L20.0557 6.0127L20.9732 5.61514C20.8778 5.39476 20.7471 5.22354 20.6269 5.08596C20.5131 4.95575 20.3697 4.81295 20.2247 4.66789L19.5176 5.375ZM20.0557 6.0127L19.1379 6.40991L19.1382 6.40981L20.0908 6.71387L21.0435 7.01793C21.1907 6.55667 21.1652 6.05854 20.9734 5.61548L20.0557 6.0127ZM20.0908 6.71387L19.1383 6.40937C19.1538 6.36106 19.1693 6.35245 19.1224 6.4182C19.0697 6.49201 18.991 6.58874 18.8444 6.76795L19.6182 7.40137L20.392 8.03478C20.5214 7.87672 20.6501 7.72045 20.7502 7.58019C20.856 7.43188 20.9699 7.24815 21.0433 7.01836L20.0908 6.71387ZM19.6182 7.40137L18.8444 6.76795C18.5936 7.07423 18.3677 7.34924 18.2046 7.58405C18.0471 7.81088 17.8579 8.12211 17.8059 8.5053L18.7969 8.63965L19.7878 8.774C19.7739 8.8766 19.7342 8.88773 19.8472 8.72509C19.9546 8.57043 20.1204 8.3666 20.392 8.03478L19.6182 7.40137ZM18.7969 8.63965L17.8058 8.50611C17.7098 9.21883 18.0041 9.92775 18.5751 10.3634L19.1816 9.56836L19.7882 8.77334L19.7879 8.77319L18.7969 8.63965ZM19.1816 9.56836L18.5752 10.3635C18.8834 10.5986 19.2381 10.6848 19.5097 10.7336C19.7909 10.7842 20.1454 10.8189 20.5391 10.8583L20.6387 9.86328L20.7382 8.86825C20.3109 8.82548 20.0494 8.7986 19.8637 8.7652C19.6684 8.73007 19.705 8.70991 19.788 8.7732L19.1816 9.56836ZM20.6387 9.86328L20.5391 10.8583C20.7682 10.8812 20.8923 10.8944 20.9809 10.9094C21.0599 10.9228 21.044 10.9278 21.0004 10.9052L21.459 10.0166L21.9176 9.12797C21.5374 8.93174 21.0842 8.90287 20.7382 8.86825L20.6387 9.86328ZM21.459 10.0166L21 10.905L20.9998 10.905L21.9297 10.5371L22.8596 10.1692C22.6818 9.72005 22.3476 9.35014 21.918 9.12818L21.459 10.0166ZM21.9297 10.5371L20.9998 10.905C20.9815 10.8587 20.988 10.8427 20.9934 10.9227C20.9994 11.0126 21 11.1372 21 11.3682H22H23C23 11.1633 23.0005 10.9609 22.9889 10.7886C22.9766 10.6063 22.948 10.3928 22.8596 10.1693L21.9297 10.5371ZM22 11.3682H21V12.6318H22H23V11.3682H22ZM22 12.6318H21C21 12.8625 20.9994 12.9872 20.9933 13.0772C20.988 13.1574 20.9814 13.1416 20.9997 13.0953L21.9297 13.4629L22.8597 13.8304C22.948 13.6071 22.9766 13.3936 22.9888 13.2115C23.0004 13.0391 23 12.8368 23 12.6318H22ZM21.9297 13.4629L20.9999 13.0948L20.9998 13.0945L21.458 13.9834L21.9162 14.8723C22.3456 14.6509 22.6812 14.2815 22.8595 13.8309L21.9297 13.4629ZM21.458 13.9834L20.9999 13.0945C21.0441 13.0717 21.0606 13.0766 20.9816 13.0899C20.8928 13.1048 20.769 13.1178 20.5393 13.1407L20.6387 14.1357L20.738 15.1308C20.9418 15.1104 21.143 15.0908 21.3132 15.0622C21.4932 15.032 21.7027 14.9823 21.9161 14.8723L21.458 13.9834ZM20.6387 14.1357L20.5393 13.1407C20.1455 13.18 19.7913 13.2147 19.51 13.2654C19.2383 13.3144 18.8842 13.4007 18.5764 13.6354L19.1826 14.4307L19.7888 15.226C19.7062 15.289 19.6698 15.2688 19.8647 15.2337C20.05 15.2003 20.3112 15.1734 20.738 15.1308L20.6387 14.1357ZM19.1826 14.4307L18.5764 13.6354C18.0046 14.0712 17.7108 14.7803 17.8068 15.493L18.7979 15.3594L19.7889 15.2258L19.7889 15.2259L19.1826 14.4307ZM18.7979 15.3594L17.8068 15.493C17.8586 15.8768 18.0481 16.1884 18.2056 16.415C18.3687 16.6497 18.5947 16.9248 18.8452 17.2309L19.6191 16.5977L20.3931 15.9644C20.1213 15.6323 19.9556 15.4285 19.848 15.2737C19.7349 15.1109 19.775 15.1225 19.7889 15.2257L18.7979 15.3594ZM19.6191 16.5977L18.8452 17.2309C18.9915 17.4097 19.0699 17.5063 19.1224 17.5799C19.1691 17.6453 19.1538 17.637 19.1385 17.5892L20.0908 17.2842L21.0432 16.9791C20.9698 16.7502 20.8565 16.5669 20.7508 16.4187C20.6508 16.2785 20.5224 16.1224 20.3931 15.9644L19.6191 16.5977ZM20.0908 17.2842L19.1383 17.5887L19.138 17.589L20.0557 17.9863L20.9733 18.3837C21.1653 17.9404 21.1909 17.4414 21.0433 16.9797L20.0908 17.2842ZM20.0557 17.9863L19.1382 17.5886C19.1579 17.5431 19.1736 17.5367 19.1206 17.5973C19.0613 17.6652 18.9735 17.7539 18.8105 17.9169L19.5176 18.624L20.2247 19.3311C20.3697 19.1861 20.5131 19.0433 20.6269 18.9131C20.747 18.7755 20.8777 18.6043 20.9732 18.384L20.0557 17.9863ZM19.5176 18.624L18.8105 17.9169L17.9179 18.8095L18.625 19.5166L19.3321 20.2237L20.2247 19.3311L19.5176 18.624ZM18.625 19.5166L17.9179 18.8095C17.7546 18.9727 17.6661 19.0605 17.5982 19.1198C17.5378 19.1726 17.5443 19.1568 17.5898 19.1371L17.9873 20.0547L18.3848 20.9723C18.6052 20.8768 18.7764 20.7462 18.9141 20.6259C19.0442 20.5122 19.1871 20.3688 19.3321 20.2237L18.625 19.5166ZM17.9873 20.0547L17.5899 19.137L17.5901 19.1371L17.2861 20.0898L16.9822 21.0425C17.4432 21.1896 17.9413 21.1644 18.3847 20.9723L17.9873 20.0547ZM17.2861 20.0898L17.5902 19.1372C17.6369 19.1521 17.6447 19.1669 17.5794 19.1205C17.5062 19.0685 17.4092 18.9901 17.2308 18.8441L16.5977 19.6182L15.9645 20.3922C16.2336 20.6123 16.5744 20.9124 16.9821 21.0425L17.2861 20.0898ZM16.5977 19.6182L17.2308 18.8441C16.9247 18.5937 16.6494 18.3674 16.4148 18.2043C16.1884 18.0467 15.8762 17.8564 15.4913 17.8048L15.3584 18.7959L15.2255 19.787C15.1215 19.7731 15.1095 19.7326 15.2728 19.8461C15.4279 19.954 15.6318 20.12 15.9645 20.3922L16.5977 19.6182ZM15.3584 18.7959L15.4909 17.8047C14.7792 17.7096 14.071 18.0035 13.6357 18.574L14.4307 19.1807L15.2257 19.7873L15.2259 19.7871L15.3584 18.7959ZM14.4307 19.1807L13.6357 18.5741C13.4005 18.8823 13.3142 19.2369 13.2653 19.5087C13.2147 19.7901 13.18 20.1446 13.1407 20.5384L14.1357 20.6377L15.1308 20.737C15.1735 20.3098 15.2003 20.0484 15.2337 19.8628C15.2688 19.6677 15.289 19.7043 15.2257 19.7873L14.4307 19.1807ZM14.1357 20.6377L13.1407 20.5384C13.1177 20.7683 13.1048 20.8924 13.0899 20.9815C13.0765 21.0609 13.0716 21.0444 13.0945 21L13.9834 21.458L14.8723 21.9161C14.9825 21.7023 15.0321 21.4924 15.0623 21.3125C15.0908 21.1422 15.1105 20.9408 15.1308 20.737L14.1357 20.6377ZM13.9834 21.458L13.0947 20.9996L13.0948 20.9999L13.4629 21.9297L13.831 22.8595C14.2816 22.6811 14.6509 22.3454 14.8721 21.9164L13.9834 21.458ZM13.4629 21.9297L13.095 20.9998C13.1415 20.9814 13.1575 20.988 13.077 20.9934C12.9868 20.9994 12.8619 21 12.6309 21V22V23C12.8359 23 13.0384 23.0005 13.2109 22.9889C13.3931 22.9767 13.607 22.9481 13.8308 22.8596L13.4629 21.9297ZM12.6309 22V21H11.3682V22V23H12.6309V22ZM11.3682 22V21C11.1372 21 11.0126 20.9994 10.9227 20.9934C10.8427 20.988 10.8587 20.9815 10.905 20.9998L10.5371 21.9297L10.1693 22.8596C10.3928 22.948 10.6063 22.9766 10.7886 22.9889C10.9609 23.0005 11.1633 23 11.3682 23V22ZM10.5371 21.9297L10.905 20.9998L10.905 21L10.0166 21.459L9.12818 21.918C9.35014 22.3476 9.72005 22.6818 10.1692 22.8596L10.5371 21.9297ZM10.0166 21.459L10.9052 21.0004C10.9278 21.044 10.9228 21.0599 10.9094 20.9809C10.8944 20.8923 10.8812 20.7682 10.8583 20.5391L9.86328 20.6387L8.86825 20.7382C8.90287 21.0842 8.93174 21.5374 9.12797 21.9176L10.0166 21.459ZM9.86328 20.6387L10.8583 20.5391C10.8189 20.1454 10.7842 19.7909 10.7336 19.5097C10.6848 19.2381 10.5986 18.8834 10.3635 18.5752L9.56836 19.1816L8.7732 19.788C8.70991 19.705 8.73007 19.6684 8.7652 19.8637C8.7986 20.0494 8.82548 20.3109 8.86825 20.7382L9.86328 20.6387ZM9.56836 19.1816L10.3634 18.5751C9.92775 18.0041 9.21883 17.7098 8.50611 17.8058L8.63965 18.7969L8.77319 19.7879L8.77334 19.7882L9.56836 19.1816ZM8.63965 18.7969L8.5053 17.8059C8.12211 17.8579 7.81088 18.0471 7.58405 18.2046C7.34924 18.3677 7.07423 18.5936 6.76795 18.8444L7.40137 19.6182L8.03478 20.392C8.3666 20.1204 8.57043 19.9546 8.72509 19.8472C8.88773 19.7342 8.8766 19.7739 8.774 19.7878L8.63965 18.7969ZM7.40137 19.6182L6.76795 18.8444C6.58874 18.991 6.49201 19.0697 6.4182 19.1224C6.35245 19.1693 6.36106 19.1538 6.40937 19.1383L6.71387 20.0908L7.01836 21.0433C7.24815 20.9699 7.43188 20.856 7.58019 20.7502C7.72045 20.6501 7.87672 20.5214 8.03478 20.392L7.40137 19.6182ZM6.71387 20.0908L6.40981 19.1382L6.40991 19.1379L6.0127 20.0557L5.61548 20.9734C6.05854 21.1652 6.55667 21.1907 7.01793 21.0435L6.71387 20.0908ZM6.0127 20.0557L6.41025 19.1381C6.45581 19.1578 6.46229 19.1736 6.40179 19.1207C6.33391 19.0614 6.24528 18.9736 6.08211 18.8105L5.375 19.5176L4.66789 20.2247C4.81295 20.3697 4.95575 20.5131 5.08596 20.6269C5.22354 20.7471 5.39476 20.8778 5.61514 20.9732L6.0127 20.0557ZM5.375 19.5176L6.08211 18.8105L5.18953 17.9179L4.48242 18.625L3.77532 19.3321L4.66789 20.2247L5.375 19.5176ZM4.48242 18.625L5.18953 17.9179C5.02628 17.7546 4.93854 17.6661 4.87926 17.5982C4.82647 17.5378 4.84222 17.5443 4.86193 17.5898L3.94434 17.9873L3.02674 18.3848C3.12222 18.6052 3.25286 18.7764 3.3731 18.9141C3.48684 19.0442 3.63026 19.1871 3.77532 19.3321L4.48242 18.625ZM3.94434 17.9873L4.86199 17.5899L4.86187 17.5901L3.90918 17.2861L2.95649 16.9822C2.80942 17.4432 2.83468 17.9413 3.02669 18.3847L3.94434 17.9873ZM3.90918 17.2861L4.86185 17.5901C4.84693 17.6369 4.83215 17.6447 4.87846 17.5795C4.93048 17.5062 5.00891 17.4093 5.15488 17.2308L4.38086 16.5977L3.60684 15.9645C3.38666 16.2337 3.08663 16.5744 2.95651 16.9821L3.90918 17.2861ZM4.38086 16.5977L5.15488 17.2308C5.40508 16.925 5.63129 16.6499 5.79436 16.4157C5.95177 16.1896 6.14228 15.8777 6.19415 15.493L5.20312 15.3594L4.2121 15.2257C4.22613 15.1217 4.26669 15.1096 4.15301 15.2729C4.04501 15.428 3.87901 15.6318 3.60684 15.9645L4.38086 16.5977ZM5.20312 15.3594L6.1942 15.4927C6.29 14.7804 5.99593 14.0713 5.42497 13.6357L4.81836 14.4307L4.21175 15.2257L4.21205 15.2261L5.20312 15.3594ZM4.81836 14.4307L5.42472 13.6355C5.11661 13.4005 4.76198 13.3142 4.4903 13.2654C4.20889 13.2147 3.85445 13.18 3.46069 13.1407L3.36133 14.1357L3.26196 15.1308C3.68901 15.1734 3.95049 15.2003 4.13609 15.2337C4.33143 15.2689 4.29491 15.2891 4.21199 15.2259L4.81836 14.4307ZM3.36133 14.1357L3.46069 13.1407C3.23097 13.1178 3.10719 13.1048 3.01838 13.0899C2.93941 13.0766 2.95592 13.0717 3.00015 13.0945L2.54199 13.9834L2.08384 14.8723C2.29735 14.9823 2.5068 15.032 2.68682 15.0622C2.857 15.0908 3.05825 15.1105 3.26196 15.1308L3.36133 14.1357ZM2.54199 13.9834L3.00024 13.0946L3.00012 13.0948L2.07031 13.4629L1.14051 13.8309C1.31885 14.2815 1.65446 14.6509 2.08374 14.8722L2.54199 13.9834ZM2.07031 13.4629L3.00027 13.0952C3.01857 13.1415 3.01203 13.1573 3.00664 13.0772C3.00059 12.9873 3 12.8626 3 12.6318H2H1C1 12.8368 0.999553 13.0391 1.01115 13.2115C1.02341 13.3936 1.05202 13.6071 1.14035 13.8306L2.07031 13.4629ZM2 12.6318H3V11.3682H2H1V12.6318H2ZM2 11.3682H3C3 11.1372 3.00058 11.0126 3.00662 10.9227C3.012 10.8427 3.01852 10.8586 3.00022 10.9049L2.07031 10.5371L1.1404 10.1693C1.05202 10.3928 1.02338 10.6063 1.01113 10.7885C0.999539 10.9609 1 11.1632 1 11.3682H2ZM2.07031 10.5371L3.00019 10.905L3.00006 10.905L2.54102 10.0166L2.08197 9.12819C1.65242 9.35014 1.31815 9.72003 1.14043 10.1692L2.07031 10.5371ZM2.54102 10.0166L2.99959 10.9053C2.95597 10.9278 2.94012 10.9228 3.01912 10.9094C3.10771 10.8944 3.23179 10.8812 3.46092 10.8583L3.36133 9.86328L3.26173 8.86825C2.91578 8.90288 2.46263 8.93176 2.08244 9.12794L2.54102 10.0166ZM3.36133 9.86328L3.46092 10.8583C3.85452 10.8189 4.20901 10.7842 4.49024 10.7337C4.76181 10.6848 5.11669 10.5986 5.42502 10.3633L4.81836 9.56836L4.2117 8.7734C4.29483 8.70995 4.33172 8.7301 4.13634 8.76523C3.95061 8.79862 3.68918 8.82547 3.26173 8.86825L3.36133 9.86328ZM4.81836 9.56836L5.42518 10.3632C5.9951 9.92809 6.28985 9.22031 6.19425 8.50767L5.20312 8.64062L4.212 8.77358L4.21154 8.77352L4.81836 9.56836ZM5.20312 8.64062L6.1942 8.50734C6.14249 8.12284 5.95228 7.81074 5.79477 7.58424C5.63154 7.34951 5.40531 7.07425 5.15479 6.76809L4.38086 7.40137L3.60693 8.03464C3.8789 8.36702 4.04493 8.57101 4.15276 8.72609C4.26633 8.88939 4.226 8.87766 4.21205 8.77391L5.20312 8.64062ZM4.38086 7.40137L5.15479 6.76809C5.00868 6.58954 4.93026 6.49277 4.87804 6.41939C4.83153 6.35404 4.84662 6.36218 4.86176 6.40958L3.90918 6.71387L2.9566 7.01816C3.0297 7.247 3.14271 7.43033 3.2486 7.5791C3.34876 7.71984 3.4772 7.8761 3.60693 8.03464L4.38086 7.40137ZM3.90918 6.71387L4.86186 6.40988L4.862 6.41005L3.94434 6.0127L3.02667 5.61534C2.83472 6.05865 2.80938 6.55677 2.9565 7.01786L3.90918 6.71387ZM3.94434 6.0127L4.86193 6.41021C4.84219 6.45578 4.82644 6.46227 4.87928 6.40179C4.93858 6.33392 5.02633 6.2453 5.18953 6.08211L4.48242 5.375L3.77532 4.66789C3.63027 4.81294 3.48685 4.95575 3.37311 5.08595C3.2529 5.22355 3.12223 5.39477 3.02674 5.61518L3.94434 6.0127ZM4.48242 5.375L5.18953 6.08211L6.08211 5.18953L5.375 4.48242L4.66789 3.77532L3.77532 4.66789L4.48242 5.375ZM5.375 4.48242L6.08211 5.18953C6.24532 5.02632 6.33393 4.93857 6.4018 4.87927C6.46226 4.82645 6.45576 4.8422 6.4102 4.86194L6.0127 3.94434L5.61519 3.02673C5.39477 3.12222 5.22355 3.25289 5.08594 3.37311C4.95575 3.48685 4.81294 3.63027 4.66789 3.77532L5.375 4.48242ZM6.0127 3.94434L6.41018 4.86195L6.40995 4.86188L6.71387 3.90918L7.01778 2.95648C6.55686 2.80944 6.05874 2.8346 5.61521 3.02673L6.0127 3.94434ZM6.71387 3.90918L6.40979 4.86183C6.36297 4.84688 6.35524 4.83211 6.42056 4.87851C6.49384 4.93056 6.59086 5.00902 6.76921 5.1549L7.40234 4.38086L8.03548 3.60682C7.76648 3.38679 7.42559 3.08665 7.01795 2.95653L6.71387 3.90918ZM7.40234 4.38086L6.76921 5.1549C7.07525 5.40523 7.35032 5.63126 7.58484 5.79429C7.81136 5.95175 8.12316 6.14161 8.50748 6.19324L8.64062 5.20215L8.77377 4.21105C8.87739 4.22497 8.88926 4.26529 8.72642 4.15209C8.57158 4.04446 8.36787 3.8787 8.03548 3.60682L7.40234 4.38086ZM8.64062 5.20215L8.50761 6.19326C9.22027 6.28891 9.92812 5.99435 10.3633 5.42403L9.56836 4.81738L8.77339 4.21073L8.77364 4.21103L8.64062 5.20215ZM9.56836 4.81738L10.3635 5.42385C10.5984 5.11579 10.6847 4.76142 10.7336 4.4898C10.7842 4.20869 10.8189 3.85444 10.8583 3.46095L9.86328 3.36133L8.86826 3.26171C8.82549 3.68888 8.79862 3.95005 8.76524 4.13551C8.73015 4.33045 8.71005 4.29378 8.77325 4.21091L9.56836 4.81738ZM9.86328 3.36133L10.8583 3.46095C10.8812 3.23184 10.8944 3.10773 10.9094 3.01913C10.9228 2.94009 10.9278 2.95592 10.9053 2.99954L10.0166 2.54102L9.12792 2.08249C8.93178 2.46264 8.90289 2.91578 8.86826 3.26171L9.86328 3.36133ZM10.0166 2.54102L10.905 3.00007L10.905 3.0002L10.5371 2.07031L10.1693 1.14043C9.72001 1.31815 9.35013 1.65243 9.12819 2.08196L10.0166 2.54102ZM10.5371 2.07031L10.9048 3.00025C10.8586 3.01854 10.8427 3.01201 10.9227 3.00663C11.0127 3.00058 11.1373 3 11.3682 3V2V1C11.1632 1 10.9609 0.999545 10.7885 1.01114C10.6063 1.0234 10.3928 1.05203 10.1694 1.14037L10.5371 2.07031ZM11.3682 2V3H12.6318V2V1H11.3682V2ZM12 8V7C9.23858 7 7 9.23858 7 12H8H9C9 10.3431 10.3431 9 12 9V8ZM8 12H7C7 14.7614 9.23858 17 12 17V16V15C10.3431 15 9 13.6569 9 12H8ZM12 16V17C14.7614 17 17 14.7614 17 12H16H15C15 13.6569 13.6569 15 12 15V16ZM16 12H17C17 9.23858 14.7614 7 12 7V8V9C13.6569 9 15 10.3431 15 12H16Z" fill="#33363F"/>
</svg>
